<?xml version="1.0" encoding="utf-8"?>
<!-- Generator: Adobe Illustrator 22.1.0, SVG Export Plug-In . SVG Version: 6.00 Build 0)  -->
<svg version="1.1" id="Layer_1" xmlns="http://www.w3.org/2000/svg" xmlns:xlink="http://www.w3.org/1999/xlink" x="0px" y="0px"
	 viewBox="0 0 200 35.1" style="enable-background:new 0 0 200 35.1;" xml:space="preserve">
<style type="text/css">
	.st0{fill:#FFFFFF;}
</style>
<g>
	<path class="st0" d="M18.8,8.4c4.9,0,9.5,1.3,13.5,3.6l4.2-7.2C31.3,1.7,25.3,0,18.8,0C12.4,0,6.3,1.7,1.1,4.8L5.3,12
		C9.3,9.7,13.9,8.4,18.8,8.4"/>
	<path class="st0" d="M22.7,12.4c-1.7,0-6.9-0.1-13.6,3c-0.9,0.4-1.5,0.7-1.6,0.5c-0.3-0.5,1.8-2.3,4.1-3.6c0.8-0.5,1.3-0.9,1.1-1.3
		c-0.3-0.5-1.9-0.6-6.5,1.7c-2.3,1.3-4.5,3-6.3,4.9l0.7,0.7c0.7-0.8,1.5-1.5,2.3-2.2c0.5-0.5,3-2.3,3.3-1.8c0.1,0.2-0.1,0.6-1,1.8
		c-0.8,1.1-1.3,2.1-0.9,2.4c0.4,0.3,0.8,0.1,1.8-0.4c0.8-0.4,3.2-1.7,7.1-2.9c3.9-1.2,4.8-0.7,4.9-0.4c0.1,0.4-1.7,1-2.7,1.5
		c-0.9,0.4-4,2.3-5.7,3.6c0,0,1.6,2.8,1.6,2.8c1.7-1,8.3-2.7,9-1.5c0.8,1.3-6.3,6.3-6.3,6.3l4.5,7.7c0,0,10.2-11.7,8.6-14.3
		c-1.6-2.6-7.8-2.1-10.2-1.9c-0.7,0.1-1.4,0.2-1.6-0.1c-0.2-0.4,0-1.8,8.2-3.8c1.8-0.4,2.5-0.7,2.4-1.5C26.1,13,24.4,12.4,22.7,12.4
		"/>
	<path class="st0" d="M49.6,15.1c0.6,0,1.1,0,1.1-0.4c0-0.3-0.2-0.8-0.5-1.5l-0.4-1h-3.7l-0.4,0.9c-0.2,0.5-0.4,1-0.4,1.4
		c0,0.4,0.3,0.6,0.8,0.6h0.4v0.4h-3.1v-0.4c0.7,0,1-0.4,1.5-1.5l2.8-6.7c0.2-0.5,0.4-1.1,0.6-1.7h1.3c0.2,0.7,0.4,1.4,0.7,2l2.6,6.9
		c0.2,0.5,0.4,1,1,1h0.3v0.4h-4.6V15.1z M48.1,7.7l-1.7,4.1h3.3L48.1,7.7z"/>
	<path class="st0" d="M54.4,15.1h0.5c0.4,0,0.6-0.2,0.6-1V9.8c0-0.8-0.1-1-0.6-1h-0.5V8.4h1.5c0.5,0,1-0.1,1.5-0.2v1.3h0
		c0.6-0.8,1.3-1.3,2.3-1.3c1,0,1.7,0.4,2,1.3c0.6-0.9,1.2-1.3,2.4-1.3c1.4,0,2.1,0.8,2.1,2v4c0,0.8,0.1,1,0.6,1h0.3v0.4h-3.8v-0.4
		h0.3c0.4,0,0.6-0.2,0.6-1v-3.6c0-0.7,0-1.5-0.9-1.5c-1.4,0-1.4,1.6-1.4,2.5v2.7c0,0.8,0.1,1,0.6,1h0.3v0.4h-3.8v-0.4h0.3
		c0.4,0,0.6-0.2,0.6-1v-3.6c0-0.7,0-1.5-0.9-1.5c-1.4,0-1.4,1.6-1.4,2.5v2.7c0,0.8,0.1,1,0.6,1h0.3v0.4h-4V15.1z"/>
	<path class="st0" d="M67.9,13.2h0.5c0.3,1.2,1,2.1,2.3,2.1c0.7,0,1.4-0.4,1.4-1.2c0-0.9-0.7-1.1-2.1-1.4c-1.1-0.2-2.1-0.6-2.1-2.1
		c0-1.7,1.2-2.5,2.8-2.5c0.6,0,1.1,0.2,1.6,0.2c0.4,0,0.6-0.1,0.8-0.2h0.1v2.3h-0.5c-0.1-0.9-0.9-1.8-1.9-1.8
		c-0.7,0-1.4,0.3-1.4,1.1c0,0.7,0.4,0.8,2,1.2c1.3,0.3,2.2,0.7,2.2,2.3c0,1.7-1.4,2.4-2.9,2.4c-0.7,0-1.4-0.2-2-0.2
		c-0.3,0-0.6,0.1-0.7,0.2h-0.1V13.2z"/>
	<path class="st0" d="M79.1,8.8h-1.5v4.6c0,0.9,0,1.5,0.7,1.5c0.5,0,0.6-0.5,0.6-1v-0.5h0.5v0.3c0,1.4-0.6,2.1-1.9,2.1
		c-1.5,0-2-0.9-2-1.9V8.8h-1V8.4c1.4-0.1,2.3-1.5,2.6-2.7h0.4v2.7h1.5V8.8z"/>
	<path class="st0" d="M82.6,12v0.4c0,1.4,0.1,2.9,1.8,2.9c1.2,0,2-1.1,2-2.2H87c-0.2,1.8-1.3,2.7-3.1,2.7c-2.3,0-3.5-1.6-3.5-3.8
		c0-2.2,1.3-3.8,3.5-3.8c2.4,0,3.2,1.6,3.2,3.8H82.6z M84.9,11.6c0-1.5,0-2.9-1.1-2.9c-1.2,0-1.2,1.5-1.2,2.9H84.9z"/>
	<path class="st0" d="M91.2,14.1c0,0.8,0.1,1,0.6,1h0.7v0.4H88v-0.4h0.5c0.4,0,0.6-0.2,0.6-1V9.8c0-0.8-0.1-1-0.6-1H88V8.4h1.5
		c0.5,0,1-0.1,1.5-0.2v1.6h0.1c0.3-0.7,1-1.5,1.9-1.5c0.7,0,1.4,0.3,1.4,1.2c0,0.7-0.4,1-1.2,1c-0.3,0-0.9-0.2-0.9-0.9
		c0-0.3,0-0.3-0.2-0.3c-0.4,0-1,0.9-1,2.5V14.1z"/>
	<path class="st0" d="M100.1,14.5L100.1,14.5c-0.4,0.9-1.2,1.3-2.2,1.3c-2,0-2.7-2.1-2.7-3.8c0-1.8,0.7-3.8,2.8-3.8
		c0.9,0,1.6,0.4,2,1.2h0V6.2c0-0.7,0-1-0.6-1H99V4.9h3.1v9.3c0,0.9,0.2,1,0.6,1h0.5v0.4h-3V14.5z M98.6,15c1.4,0,1.5-2.3,1.5-3.2
		c0-1-0.1-2.9-1.5-2.9c-1.1,0-1.1,2.2-1.1,2.9C97.5,12.4,97.5,15,98.6,15"/>
	<path class="st0" d="M111.6,13.5c0,1,0,2.2-1.8,2.2c-0.6,0-1.3-0.3-1.6-1c-0.4,0.7-1.3,1-2.1,1c-1.2,0-2.2-0.7-2.2-2
		c0-1.8,2.1-2.5,3.6-2.5c0.2,0,0.4,0,0.6,0V9.8c0-0.6-0.2-1.2-1-1.2c-0.3,0-1,0.1-1,0.4c0,0.2,0.3,0.4,0.3,0.8c0,0.6-0.5,1-1.1,1
		c-0.6,0-1.1-0.4-1.1-1.1c0-1.3,1.9-1.6,2.9-1.6c1.4,0,2.9,0.4,2.9,2v4.3c0,0.4,0.1,0.5,0.4,0.5c0.5,0,0.5-0.8,0.5-1.4H111.6z
		 M108.2,11.8c-0.2,0-0.3-0.1-0.4-0.1c-1.2,0-1.7,0.8-1.7,2c0,0.6,0.3,1.3,1,1.3c0.4,0,1.1-0.2,1.1-1.5V11.8z"/>
	<path class="st0" d="M112.2,15.1h0.5c0.4,0,0.6-0.2,0.6-1V9.8c0-0.8-0.1-1-0.6-1h-0.5V8.4h1.5c0.5,0,1-0.1,1.5-0.2v1.3h0
		c0.6-0.8,1.3-1.3,2.3-1.3c1,0,1.7,0.4,2,1.3c0.6-0.9,1.2-1.3,2.4-1.3c1.4,0,2.1,0.8,2.1,2v4c0,0.8,0.1,1,0.6,1h0.3v0.4H121v-0.4
		h0.3c0.4,0,0.6-0.2,0.6-1v-3.6c0-0.7,0-1.5-0.9-1.5c-1.4,0-1.4,1.6-1.4,2.5v2.7c0,0.8,0.1,1,0.6,1h0.3v0.4h-3.8v-0.4h0.3
		c0.4,0,0.6-0.2,0.6-1v-3.6c0-0.7,0-1.5-0.9-1.5c-1.4,0-1.4,1.6-1.4,2.5v2.7c0,0.8,0.1,1,0.6,1h0.3v0.4h-4V15.1z"/>
	<path class="st0" d="M139.7,5.8h-0.4c-0.7,0-0.7,0.4-0.7,2.2v4.3c0,2.1-1.3,3.5-3.6,3.5c-2.6,0-4-1.4-4-3.5V8c0-1.8,0-2.2-0.7-2.2
		h-0.4V5.3h4.4v0.4h-0.4c-0.7,0-0.7,0.4-0.7,2.2v4.5c0,1.9,1.1,2.6,2.2,2.6c1.4,0,2.6-1,2.6-3.1V8c0-1.8,0-2.2-0.7-2.2h-0.4V5.3h2.8
		V5.8z"/>
	<path class="st0" d="M140.2,15.1h0.5c0.4,0,0.6-0.2,0.6-1V9.8c0-0.8-0.1-1-0.6-1h-0.5V8.4h1.5c0.5,0,1-0.1,1.5-0.2v1.3h0
		c0.6-0.8,1.3-1.3,2.3-1.3c1.4,0,2.1,0.8,2.1,2v4c0,0.8,0.1,1,0.6,1h0.3v0.4h-3.8v-0.4h0.3c0.4,0,0.6-0.2,0.6-1v-3.6
		c0-0.7,0-1.5-0.9-1.5c-1.4,0-1.4,1.6-1.4,2.5v2.7c0,0.8,0.1,1,0.6,1h0.3v0.4h-4V15.1z"/>
	<path class="st0" d="M149.1,15.1h0.5c0.4,0,0.6-0.2,0.6-1V9.8c0-0.8-0.1-1-0.6-1h-0.5V8.4h1.5c0.6,0,1.2-0.1,1.7-0.2
		c-0.1,1.1-0.1,2.2-0.1,3.3v2.7c0,0.8,0.1,1,0.6,1h0.5v0.4h-4.2V15.1z M151.2,4.9c0.7,0,1.2,0.5,1.2,1.2c0,0.7-0.5,1.2-1.2,1.2
		c-0.7,0-1.2-0.5-1.2-1.2C150,5.4,150.5,4.9,151.2,4.9"/>
	<path class="st0" d="M161,8.8c-0.5,0-0.7,0.4-0.9,1l-1.7,4.2c-0.2,0.5-0.4,1.1-0.6,1.6h-1c-0.1-0.4-0.3-0.8-0.4-1.1l-1.9-4.8
		c-0.2-0.6-0.3-0.9-0.7-0.9h-0.2V8.4h3.9v0.4H157c-0.2,0-0.5,0.1-0.5,0.3c0,0.1,0,0.2,0.1,0.5l1.4,3.6h0l1.4-3.6
		c0.1-0.2,0.1-0.4,0.1-0.5c0-0.2-0.2-0.4-0.5-0.4h-0.3V8.4h2.3V8.8z"/>
	<path class="st0" d="M163.6,12v0.4c0,1.4,0.1,2.9,1.8,2.9c1.2,0,2-1.1,2-2.2h0.6c-0.2,1.8-1.3,2.7-3.1,2.7c-2.3,0-3.5-1.6-3.5-3.8
		c0-2.2,1.3-3.8,3.5-3.8c2.4,0,3.2,1.6,3.2,3.8H163.6z M165.9,11.6c0-1.5,0-2.9-1.1-2.9c-1.2,0-1.2,1.5-1.2,2.9H165.9z"/>
	<path class="st0" d="M172,14.1c0,0.8,0.1,1,0.6,1h0.7v0.4h-4.3v-0.4h0.5c0.4,0,0.6-0.2,0.6-1V9.8c0-0.8-0.1-1-0.6-1h-0.5V8.4h1.5
		c0.5,0,1-0.1,1.5-0.2v1.6h0.1c0.3-0.7,1-1.5,1.9-1.5c0.7,0,1.4,0.3,1.4,1.2c0,0.7-0.4,1-1.2,1c-0.3,0-0.9-0.2-0.9-0.9
		c0-0.3,0-0.3-0.2-0.3c-0.4,0-1,0.9-1,2.5V14.1z"/>
	<path class="st0" d="M176.1,13.2h0.5c0.3,1.2,1,2.1,2.3,2.1c0.7,0,1.4-0.4,1.4-1.2c0-0.9-0.7-1.1-2.1-1.4c-1.1-0.2-2.1-0.6-2.1-2.1
		c0-1.7,1.2-2.5,2.8-2.5c0.6,0,1.1,0.2,1.6,0.2c0.4,0,0.6-0.1,0.8-0.2h0.1v2.3h-0.5c-0.1-0.9-0.9-1.8-1.9-1.8
		c-0.7,0-1.4,0.3-1.4,1.1c0,0.7,0.4,0.8,2,1.2c1.3,0.3,2.2,0.7,2.2,2.3c0,1.7-1.4,2.4-2.9,2.4c-0.7,0-1.4-0.2-2-0.2
		c-0.3,0-0.6,0.1-0.7,0.2h-0.1V13.2z"/>
	<path class="st0" d="M182.5,15.1h0.5c0.4,0,0.6-0.2,0.6-1V9.8c0-0.8-0.1-1-0.6-1h-0.5V8.4h1.5c0.6,0,1.2-0.1,1.7-0.2
		c-0.1,1.1-0.1,2.2-0.1,3.3v2.7c0,0.8,0.1,1,0.6,1h0.5v0.4h-4.2V15.1z M184.6,4.9c0.7,0,1.2,0.5,1.2,1.2c0,0.7-0.5,1.2-1.2,1.2
		c-0.7,0-1.2-0.5-1.2-1.2C183.4,5.4,184,4.9,184.6,4.9"/>
	<path class="st0" d="M191.8,8.8h-1.5v4.6c0,0.9,0,1.5,0.7,1.5c0.5,0,0.6-0.5,0.6-1v-0.5h0.5v0.3c0,1.4-0.6,2.1-1.9,2.1
		c-1.5,0-2-0.9-2-1.9V8.8h-1V8.4c1.4-0.1,2.3-1.5,2.6-2.7h0.4v2.7h1.5V8.8z"/>
	<path class="st0" d="M200,8.8c-0.5,0-0.7,0.4-0.9,1l-2.8,7.1c-0.5,1.3-0.9,2-2.2,2c-0.7,0-1.4-0.6-1.4-1.3c0-0.6,0.4-1,1-1
		c0.6,0,0.9,0.4,0.9,0.8c0,0.3-0.2,0.5-0.2,0.7c0,0.1,0.1,0.3,0.3,0.3c0.4,0,0.8-0.7,1.1-1.6l0.3-1l-2.3-6c-0.1-0.4-0.3-1.1-0.8-1.1
		h-0.3V8.4h3.9v0.4h-0.3c-0.3,0-0.6,0-0.6,0.4c0,0.1,0,0.2,0.1,0.3l1.4,3.7h0l1.3-3.4c0.1-0.2,0.1-0.4,0.1-0.5
		c0-0.4-0.2-0.5-0.5-0.5h-0.4V8.4h2.3V8.8z"/>
	<path class="st0" d="M47.9,24.6c2.3,0,3.5,1.6,3.5,3.8c0,2.2-1.3,3.8-3.5,3.8c-2.3,0-3.5-1.6-3.5-3.8
		C44.3,26.2,45.6,24.6,47.9,24.6 M47.9,31.7c1,0,1.4-0.8,1.4-3.3c0-2.8-0.6-3.3-1.4-3.3c-0.8,0-1.4,0.5-1.4,3.3
		C46.5,30.8,46.9,31.7,47.9,31.7"/>
	<path class="st0" d="M53.3,25.2h-1.1v-0.4h1.1v-0.7c0-1.9,0.9-3.1,2.8-3.1c0.9,0,2.2,0.4,2.2,1.5c0,0.6-0.4,1-1,1
		c-0.6,0-1-0.3-1-0.9c0-0.6,0.4-0.7,0.4-0.9c0-0.2-0.3-0.3-0.5-0.3c-1-0.1-1,1.3-1,2v1.3h1.4v0.4h-1.4v5.4c0,0.8,0.1,1,0.6,1h0.8V32
		h-4.5v-0.4h0.5c0.4,0,0.6-0.2,0.6-1V25.2z"/>
	<path class="st0" d="M67.4,31.5c0.6,0,1.1,0,1.1-0.4c0-0.3-0.2-0.8-0.5-1.5l-0.4-1H64l-0.4,0.9c-0.2,0.5-0.4,1-0.4,1.4
		c0,0.4,0.3,0.6,0.8,0.6h0.4V32h-3.1v-0.4c0.7,0,1-0.4,1.5-1.5l2.8-6.7c0.2-0.5,0.4-1.1,0.6-1.7h1.3c0.2,0.7,0.4,1.4,0.7,2l2.6,6.9
		c0.2,0.5,0.4,1,1,1H72V32h-4.6V31.5z M65.9,24.1l-1.7,4.1h3.3L65.9,24.1z"/>
	<path class="st0" d="M72.1,34.6h0.5c0.5,0,0.5-0.5,0.5-1.2v-6.2c0-1.5,0.1-2-0.6-2h-0.4v-0.4h1.2c0.6,0,1.2-0.1,1.7-0.2v1.3h0
		c0.4-0.9,1.2-1.3,2.1-1.3c2.1,0,2.8,2,2.8,3.8c0,1.7-0.7,3.8-2.7,3.8c-0.9,0-1.7-0.4-2.1-1.1h0v2c0,1.2,0,1.6,0.6,1.6h0.5v0.4h-4.1
		V34.6z M76.7,31.5c1.1,0,1.1-2.6,1.1-3.3c0-0.7,0-2.9-1.1-2.9c-1.4,0-1.5,2-1.5,2.9C75.2,29.2,75.2,31.5,76.7,31.5"/>
	<path class="st0" d="M80.8,34.6h0.5c0.5,0,0.5-0.5,0.5-1.2v-6.2c0-1.5,0.1-2-0.6-2h-0.4v-0.4h1.2c0.6,0,1.2-0.1,1.7-0.2v1.3h0
		c0.4-0.9,1.2-1.3,2.1-1.3c2.1,0,2.8,2,2.8,3.8c0,1.7-0.7,3.8-2.7,3.8c-0.9,0-1.7-0.4-2.1-1.1h0v2c0,1.2,0,1.6,0.6,1.6H85v0.4h-4.1
		V34.6z M85.4,31.5c1.1,0,1.1-2.6,1.1-3.3c0-0.7,0-2.9-1.1-2.9c-1.4,0-1.5,2-1.5,2.9C84,29.2,84,31.5,85.4,31.5"/>
	<path class="st0" d="M89.5,31.5H90c0.4,0,0.6-0.2,0.6-1v-7.9c0-0.8-0.1-1-0.6-1h-0.5v-0.4h3.1v9.3c0,0.8,0.1,1,0.6,1h0.5V32h-4.2
		V31.5z"/>
	<path class="st0" d="M94,31.5h0.5c0.4,0,0.6-0.2,0.6-1v-4.4c0-0.8-0.1-1-0.6-1H94v-0.4h1.5c0.6,0,1.2-0.1,1.7-0.2
		c-0.1,1.1-0.1,2.2-0.1,3.3v2.7c0,0.8,0.1,1,0.6,1h0.5V32H94V31.5z M96.1,21.3c0.7,0,1.2,0.5,1.2,1.2s-0.5,1.2-1.2,1.2
		c-0.7,0-1.2-0.5-1.2-1.2S95.5,21.3,96.1,21.3"/>
	<path class="st0" d="M101.2,28.4v0.4c0,1.4,0.1,2.9,1.8,2.9c1.2,0,2-1.1,2-2.2h0.6c-0.2,1.8-1.3,2.7-3.1,2.7
		c-2.3,0-3.5-1.6-3.5-3.8c0-2.2,1.3-3.8,3.5-3.8c2.4,0,3.2,1.6,3.2,3.8H101.2z M103.5,28c0-1.5,0-2.9-1.1-2.9
		c-1.2,0-1.2,1.5-1.2,2.9H103.5z"/>
	<path class="st0" d="M111.8,30.9L111.8,30.9c-0.4,0.9-1.2,1.3-2.2,1.3c-2,0-2.7-2.1-2.7-3.8c0-1.8,0.7-3.8,2.8-3.8
		c0.9,0,1.6,0.4,2,1.2h0v-3.1c0-0.7,0-1-0.6-1h-0.4v-0.4h3.1v9.3c0,0.9,0.2,1,0.6,1h0.5V32h-3V30.9z M110.3,31.5
		c1.4,0,1.5-2.3,1.5-3.2c0-1-0.1-2.9-1.5-2.9c-1.1,0-1.1,2.2-1.1,2.9C109.1,28.9,109.1,31.5,110.3,31.5"/>
	<path class="st0" d="M120.2,29.2h0.5c0,1.4,1.3,2.4,2.7,2.4c1.2,0,2-0.7,2-1.8c0-2.7-5.4-1.5-5.4-5.2c0-2,1.5-3.1,3.4-3.1
		c0.8,0,1.7,0.4,2.1,0.4c0.3,0,0.4-0.1,0.4-0.3h0.5v2.6H126c-0.1-1.3-1.1-2.2-2.4-2.2c-1,0-2,0.5-2,1.6c0,2.5,5.5,1.2,5.5,5.3
		c0,2-1.7,3.2-3.5,3.2c-1,0-1.9-0.4-2.4-0.4c-0.3,0-0.3,0.1-0.4,0.3h-0.5V29.2z"/>
	<path class="st0" d="M134.7,29.6c-0.2,1.8-1.2,2.6-3,2.6c-2.3,0-3.4-1.7-3.4-3.9c0-2.7,1.9-3.7,3.6-3.7c2,0,2.6,1.1,2.6,1.6
		c0,0.7-0.4,1.2-1.1,1.2c-0.6,0-1-0.4-1-1c0-0.4,0.2-0.5,0.2-0.7c0-0.3-0.5-0.6-0.8-0.6c-1.2,0-1.3,1.7-1.3,3.4c0,1.1,0,3.2,1.6,3.2
		c1.3,0,1.8-1,1.9-2.1H134.7z"/>
	<path class="st0" d="M135.4,31.5h0.5c0.4,0,0.6-0.2,0.6-1v-4.4c0-0.8-0.1-1-0.6-1h-0.5v-0.4h1.5c0.6,0,1.2-0.1,1.7-0.2
		c-0.1,1.1-0.1,2.2-0.1,3.3v2.7c0,0.8,0.1,1,0.6,1h0.5V32h-4.2V31.5z M137.5,21.3c0.7,0,1.2,0.5,1.2,1.2s-0.5,1.2-1.2,1.2
		c-0.7,0-1.2-0.5-1.2-1.2S136.8,21.3,137.5,21.3"/>
	<path class="st0" d="M142.6,28.4v0.4c0,1.4,0.1,2.9,1.8,2.9c1.2,0,2-1.1,2-2.2h0.6c-0.2,1.8-1.3,2.7-3.1,2.7
		c-2.3,0-3.5-1.6-3.5-3.8c0-2.2,1.3-3.8,3.5-3.8c2.4,0,3.2,1.6,3.2,3.8H142.6z M144.9,28c0-1.5,0-2.9-1.1-2.9
		c-1.2,0-1.2,1.5-1.2,2.9H144.9z"/>
	<path class="st0" d="M148,31.5h0.5c0.4,0,0.6-0.2,0.6-1v-4.4c0-0.8-0.1-1-0.6-1H148v-0.4h1.5c0.5,0,1-0.1,1.5-0.2v1.3h0
		c0.6-0.8,1.3-1.3,2.3-1.3c1.4,0,2.1,0.8,2.1,2v4c0,0.8,0.1,1,0.6,1h0.3V32h-3.8v-0.4h0.3c0.4,0,0.6-0.2,0.6-1V27
		c0-0.7,0-1.5-0.9-1.5c-1.4,0-1.4,1.6-1.4,2.5v2.7c0,0.8,0.1,1,0.6,1h0.3V32h-4V31.5z"/>
	<path class="st0" d="M163.4,29.6c-0.2,1.8-1.2,2.6-3,2.6c-2.3,0-3.4-1.7-3.4-3.9c0-2.7,1.9-3.7,3.6-3.7c2,0,2.6,1.1,2.6,1.6
		c0,0.7-0.4,1.2-1.1,1.2c-0.6,0-1-0.4-1-1c0-0.4,0.2-0.5,0.2-0.7c0-0.3-0.5-0.6-0.8-0.6c-1.2,0-1.3,1.7-1.3,3.4c0,1.1,0,3.2,1.6,3.2
		c1.3,0,1.8-1,1.9-2.1H163.4z"/>
	<path class="st0" d="M166.6,28.4v0.4c0,1.4,0.1,2.9,1.8,2.9c1.2,0,2-1.1,2-2.2h0.6c-0.2,1.8-1.3,2.7-3.1,2.7
		c-2.3,0-3.5-1.6-3.5-3.8c0-2.2,1.3-3.8,3.5-3.8c2.4,0,3.2,1.6,3.2,3.8H166.6z M168.9,28c0-1.5,0-2.9-1.1-2.9
		c-1.2,0-1.2,1.5-1.2,2.9H168.9z"/>
	<path class="st0" d="M172.4,29.6h0.5c0.3,1.2,1,2.1,2.3,2.1c0.7,0,1.4-0.4,1.4-1.2c0-0.9-0.7-1.1-2.1-1.4c-1.1-0.2-2.1-0.6-2.1-2.1
		c0-1.7,1.2-2.5,2.8-2.5c0.6,0,1.1,0.2,1.6,0.2c0.4,0,0.6-0.1,0.8-0.2h0.1v2.3h-0.5c-0.1-0.9-0.9-1.8-1.9-1.8
		c-0.7,0-1.4,0.3-1.4,1.1c0,0.7,0.4,0.8,2,1.2c1.3,0.3,2.2,0.7,2.2,2.3c0,1.7-1.4,2.4-2.9,2.4c-0.7,0-1.4-0.2-2-0.2
		c-0.3,0-0.6,0.1-0.7,0.2h-0.1V29.6z"/>
</g>
</svg>
