<?xml version="1.0" encoding="utf-8"?>
<!-- Generator: Adobe Illustrator 24.3.0, SVG Export Plug-In . SVG Version: 6.00 Build 0)  -->
<svg version="1.1" id="Laag_1" xmlns="http://www.w3.org/2000/svg" xmlns:xlink="http://www.w3.org/1999/xlink" x="0px" y="0px"
	 viewBox="0 0 634.4 35.6" style="enable-background:new 0 0 634.4 35.6;" xml:space="preserve">
<style type="text/css">
	.st0{fill:#8BCBBD;}
	.st1{fill:#EE858D;}
	.st2{fill:#5A7AB6;}
</style>
<g>
	<path class="st0" d="M384,17.8c0-1.5,0.3-2.9,0.7-4.2l-3.5-7.8c-2.8,3.1-4.4,7.3-4.4,12c0,10.1,7.3,17.8,17.8,17.8l-3.1-6.9
		C387,27.3,384,23.2,384,17.8z"/>
	<polygon class="st0" points="218.8,34.9 236.8,34.9 236.8,28.8 225.7,28.8 225.7,20.6 234.9,20.6 234.9,14.5 225.7,14.5 225.7,6.9 
		236.4,6.9 236.4,1.7 218.8,9.9 	"/>
	<path class="st0" d="M265.6,10.8c0-5.6-4.1-10.2-11.6-10.2h-10.3v34.3h6.9V21.5h3.7l6.7,13.4h7.6l-8.1-15
		C263.5,18.2,265.6,15,265.6,10.8z M253.7,15.7h-3.2V6.6h2.9c3.1,0,5,1.7,5,4.5C258.5,14.1,256.2,15.7,253.7,15.7z"/>
	<polygon class="st0" points="351.3,34.9 351.3,6.9 359.3,6.9 359.3,0.6 336.4,0.6 336.4,6.9 344.4,6.9 344.4,34.9 	"/>
	<path class="st0" d="M322.3,6.5c3.5,0,6.6,1.6,8.2,2.7l2-6.1c-2.2-1.6-5.6-3.1-10.2-3.1c-10.3,0-17.9,7.7-17.9,17.8
		c0,10.1,7.2,17.8,17.9,17.8c5,0,8.4-1.7,10.5-3.2l-2-6c-1.6,1.1-4.8,2.8-8.5,2.8c-6.2,0-10.7-4.8-10.7-11.3
		C311.6,11.3,316.1,6.5,322.3,6.5z"/>
	<path class="st0" d="M278.5,34.9l3-8.8h11.7l3,8.8h7L290.9,0.6h-7.3l-12.2,34.3H278.5z M287.3,8l4,12.3h-8L287.3,8z"/>
	<rect x="363.9" y="0.6" class="st0" width="6.9" height="34.3"/>
	<polygon class="st0" points="206.1,15.8 199.2,19 199.2,34.9 206.1,34.9 	"/>
	<polygon class="st0" points="186.6,34.9 186.6,24.9 176.3,29.7 179.7,34.9 	"/>
	<path class="st1" d="M112.9,6.5c3.5,0,6.6,1.6,8.2,2.7l2-6.1c-2.2-1.6-5.6-3.1-10.2-3.1C102.6,0,95,7.7,95,17.8
		c0,10.1,7.2,17.8,17.9,17.8c5,0,8.4-1.7,10.5-3.2l-2-6c-1.6,1.1-4.8,2.8-8.5,2.8c-6.2,0-10.7-4.8-10.7-11.3
		C102.2,11.3,106.7,6.5,112.9,6.5z"/>
	<path class="st1" d="M17.9,35.6c5,0,8.4-1.7,10.5-3.2l-2-6c-1.6,1.1-4.8,2.8-8.5,2.8c-6.2,0-10.7-4.8-10.7-11.3
		c0-6.5,4.5-11.3,10.7-11.3c3.5,0,6.6,1.6,8.2,2.7l2-6.1C25.9,1.5,22.4,0,17.9,0C7.5,0,0,7.7,0,17.8C0,27.9,7.2,35.6,17.9,35.6z"/>
	<rect x="34" y="0.6" class="st1" width="6.9" height="34.3"/>
	<rect x="82.1" y="0.6" class="st1" width="6.9" height="34.3"/>
	<polygon class="st1" points="70.2,0.6 61.5,26.8 52.7,0.6 45.1,0.6 57.7,34.9 65.2,34.9 77.8,0.6 	"/>
	<rect x="143.4" y="0.6" class="st1" width="6.9" height="34.3"/>
	<polygon class="st1" points="218.8,9.9 236.4,1.7 236.4,0.6 218.8,0.6 	"/>
	<polygon class="st1" points="186.6,0.6 179.7,0.6 179.7,24.1 165.1,0.6 158.1,0.6 158.1,34.9 164.9,34.9 164.9,11.7 176.3,29.7 
		186.6,24.9 	"/>
	<polygon class="st1" points="206.1,6.9 214.1,6.9 214.1,0.6 191.2,0.6 191.2,6.9 199.2,6.9 199.2,19 206.1,15.8 	"/>
	<rect x="553.4" y="0.6" class="st2" width="6.9" height="34.3"/>
	<path class="st2" d="M584.3,6.4c4.9,0,7.8,2.6,8.9,3.8l4.4-4.5C595.7,3.6,591.2,0,584,0c-10.4,0-17.8,7.9-17.8,17.8
		c0,10.8,8.1,17.8,17.8,17.8c7.2,0,11.3-2.5,15-5.6V16.4h-13v5.8h6.5v4.2c-0.7,0.7-3.4,2.7-8.2,2.7c-6.2,0-10.9-4.3-10.9-11.3
		C573.4,11.4,577.6,6.4,584.3,6.4z"/>
	<polygon class="st2" points="519.7,6.9 519.7,0.6 502.1,0.6 502.1,34.9 520.2,34.9 520.2,28.8 509,28.8 509,20.6 518.2,20.6 
		518.2,14.5 509,14.5 509,6.9 	"/>
	<path class="st2" d="M536.2,29.2c-3.1,0-5-2.1-5.9-4.4l-5.8,2.8c1,2.8,4,7.9,11.4,7.9c7.2,0,11.5-4.4,11.5-10.4
		c0-10.6-14.9-9.8-14.9-15.5c0-1.9,1.4-3.3,3.7-3.3c3,0,4.3,2.1,5,3.7l5.7-2.6C546,5,543.2,0,536.3,0c-6.6,0-10.8,4-10.8,9.8
		c0,11,14.8,10,14.8,15.9C540.3,27.8,538.8,29.2,536.2,29.2z"/>
	<polygon class="st2" points="627.6,24.1 612.9,0.6 605.9,0.6 605.9,34.9 612.7,34.9 612.7,11.7 627.5,34.9 634.4,34.9 634.4,0.6 
		627.6,0.6 	"/>
	<path class="st2" d="M477.9,34.9c11.2,0,18.2-6.2,18.2-17.1c0-10.7-7-17.1-18.2-17.1h-9.1v34.3H477.9z M475.7,6.7h2.4
		c6.5,0,10.7,3.9,10.7,11.1c0,7.4-4.2,11.2-10.7,11.2h-2.4V6.7z"/>
	<path class="st2" d="M412.5,17.8c0-10-7.3-17.8-17.8-17.8c-5.6,0-10.3,2.2-13.4,5.8l3.5,7.8c1.5-4.2,5.2-7.1,9.9-7.1
		c6.2,0,10.6,4.9,10.6,11.3c0,6.6-4.5,11.3-10.6,11.3c-1.1,0-2.2-0.2-3.1-0.4l3.1,6.9c0,0,0,0,0,0C405.2,35.6,412.5,27.9,412.5,17.8
		z"/>
	<polygon class="st2" points="425.5,0.6 418.5,0.6 418.5,34.9 425.3,34.9 425.3,11.7 440.1,34.9 447,34.9 447,0.6 440.2,0.6 
		440.2,24.1 	"/>
</g>
</svg>
